<svg xmlns="http://www.w3.org/2000/svg">
 <svg>
  <symbol id="difficult_sort" viewBox="0 0 16 16">
   <path d="M14.5 2a.5.5 0 010 1h-7a.5.5 0 010-1h7zm.5 4.5a.5.5 0 00-.5-.5h-9a.5.5 0 000 1h9a.5.5 0 00.5-.5zm-.5 3.5a.5.5 0 010 1h-11a.5.5 0 010-1h11zm0 4a.5.5 0 010 1h-13a.5.5 0 010-1h13z"/>
  </symbol>
 </svg>
 <svg>
  <symbol id="alphabet_ru" viewBox="0 0 16 16">
   <path d="M2 .5c0-.3.2-.5.5-.5h2c.3 0 .5.2.5.5s-.2.5-.5.5H3v14h1.5c.3 0 .5.2.5.5s-.2.5-.5.5h-2c-.3 0-.5-.2-.5-.5V.5zm8.5 9.5H13v3h-2.5c-.8 0-1.5-.7-1.5-1.5s.7-1.5 1.5-1.5zM13 9c.6 0 1 .4 1 1v5.5c0 .3-.2.5-.5.5s-.5-.2-.5-.5V14h-2.7l-1.4 1.8c-.2.2-.5.3-.7.1-.2-.2-.3-.5-.1-.7l1.2-1.5A2.6 2.6 0 018 11.5C8 10.1 9.1 9 10.5 9H13zm0-6v1H9V3c0-1.1.9-2 2-2a2 2 0 012 2zM9 5h4v1.5c0 .3.2.5.5.5s.5-.2.5-.5V3c0-1.7-1.3-3-3-3S8 1.3 8 3v3.5c0 .3.2.5.5.5s.5-.2.5-.5V5z"/>
  </symbol>
 </svg>
 <svg>
  <symbol id="alphabet_en" viewBox="0 0 16 16">
   <path d="M2 .5a.5.5 0 01.5-.5h2a.5.5 0 010 1H3v14h1.5a.5.5 0 010 1h-2a.5.5 0 01-.5-.5V.5zm6 9a.5.5 0 01.5-.5h5a.5.5 0 01.4.8.5.5 0 01-.02.03L9.57 15h3.93a.5.5 0 010 1h-5a.5.5 0 01-.36-.85l4.3-5.15H8.5a.5.5 0 01-.5-.5zM13 3v1H9V3a2 2 0 014 0zM9 5h4v1.5a.5.5 0 001 0V3a3 3 0 10-6 0v3.5a.5.5 0 001 0V5z"/>
  </symbol>
 </svg>
 <svg>
  <symbol id="non_sort" viewBox="0 0 16 16">
   <path d="M9 4.5a1.5 1.5 0 113 0 1.5 1.5 0 01-3 0zM8.05 4a2.5 2.5 0 014.9 0h1.55a.5.5 0 010 1h-1.55a2.5 2.5 0 01-4.9 0H1.5a.5.5 0 010-1h6.55zM5.5 10a1.5 1.5 0 110 3 1.5 1.5 0 010-3zm0-1c1.2 0 2.22.86 2.45 2h6.55a.5.5 0 010 1H7.95a2.5 2.5 0 01-4.9 0H1.5a.5.5 0 010-1h1.55A2.5 2.5 0 015.5 9z"/>
  </symbol>
 </svg>
 <svg>
  <symbol id="time" viewBox="0 0 16 16">
   <path d="M8 16A8 8 0 118.02-.02 8 8 0 018 16zM8 1a7 7 0 10.02 14.02A7 7 0 008 1zM7 3.5a.5.5 0 011 0V8h3.5a.5.5 0 010 1h-4a.5.5 0 01-.5-.5v-5z"/>
  </symbol>
 </svg>
 <svg>
  <symbol id="date" viewBox="0 0 16 16">
   <path d="M3.5 1a.5.5 0 00-.5.5V2H1.83A1.8 1.8 0 000 3.75v10.5C0 15.21.82 16 1.83 16h12.34A1.8 1.8 0 0016 14.25V3.75A1.8 1.8 0 0014.17 2H13v-.5a.5.5 0 00-1 0V2H4v-.5a.5.5 0 00-.5-.5zM12 3.5v-.55H4v.55a.5.5 0 01-1 0v-.55H1.83a.82.82 0 00-.83.8v10.5c0 .44.37.8.83.8h12.34c.46 0 .83-.36.83-.8V3.75c0-.44-.37-.8-.83-.8H13v.55a.5.5 0 01-1 0zM13.5 6h-11a.5.5 0 010-1h11a.5.5 0 010 1zM5 9V8H3v1h2zm0 1v1H3v-1h2zm0 3v-1H3v1h2zm2-5h2v1H7V8zm2 2H7v1h2v-1zm-2 2h2v1H7v-1zm6-3V8h-2v1h2zm0 1v1h-2v-1h2zm0 3v-1h-2v1h2z"/>
  </symbol>
 </svg>
 <svg>
  <symbol id="debt" viewBox="0 0 16 16">
   <path d="M16 3a1 1 0 01-1 1h-2v10a2 2 0 01-2 2H2.5c-.67 0-1.32-.27-1.8-.75a2.68 2.68 0 01-.7-1.84V13a1 1 0 011-1V2.4c0-.66.04-1.44.5-1.9.48-.48 1.33-.5 2-.5H14c.52 0 1.13.13 1.5.5s.5.89.5 1.4V3zm-5 12a1 1 0 001-1V1H3.39c-.39 0-.73 0-1.01.28-.32.31-.38.69-.38 1.13V12h7.6c.22 0 .4.18.4.4V14a1 1 0 001 1zm-2-2v1c0 .36.1.7.27 1H2.5c-.44 0-.81-.16-1.13-.47-.3-.31-.37-.69-.37-1.12V13h8zm5-12h-1v2h2V1.9c0-.5-.4-.9-.9-.9H14zM4 3.5a.5.5 0 01.5-.5h5a.5.5 0 010 1h-5a.5.5 0 01-.5-.5zm0 3a.5.5 0 01.5-.5h5a.5.5 0 010 1h-5a.5.5 0 01-.5-.5zM4.5 9a.5.5 0 000 1h5a.5.5 0 000-1h-5z"/>
  </symbol>
 </svg>
 <svg>
  <symbol id="deflection" viewBox="0 0 16 16">
   <path d="M7.97 1a.5.5 0 00-.43.25l-6.5 13a.5.5 0 00.43.75h13a.5.5 0 00.44-.75l-6.5-13A.5.5 0 007.97 1zM2.34 14L7.97 2.5 13.61 14H2.34z"/>
  </symbol>
 </svg>
 <svg>
  <symbol id="number" viewBox="0 0 16 16">
   <path d="M2.5 0a.5.5 0 00-.5.5v15a.5.5 0 00.5.5h2a.5.5 0 000-1H3V1h1.5a.5.5 0 000-1h-2zM9 10.5a.5.5 0 01.5-.5h3a.5.5 0 01.5.5V12H9.5a.5.5 0 01-.5-.5v-1zM12.5 9a1.5 1.5 0 011.5 1.5v4c0 1-.5 1.5-1.5 1.5h-4a.5.5 0 010-1h4a.5.5 0 00.5-.5V13H9.5A1.5 1.5 0 018 11.5v-1A1.5 1.5 0 019.5 9h3zM12 .5a.5.5 0 00-.5-.5h-2a.5.5 0 000 1H11v5H9.5a.5.5 0 000 1h4a.5.5 0 000-1H12V.5z"/>
  </symbol>
 </svg>
 <svg>
  <symbol id="partner" viewBox="0 0 16 16">
   <path d="M12.6 10.8l-2.2-.5c-.6-.1-.4-1-.4-1 .1-.3.7-1.4.8-1.4.4-.4.9-1 1-1.7.1-.6 0-1-.1-1.3 0-.5 0-1.5-.2-2.2 0-.8-.2-1.3-.5-1.7C10.7.7 9.8.5 9.7.5 9.2.2 8.6 0 8 0 6.7.1 5 .9 4.5 2.6c-.2.4-.2 2.3-.2 2.3-.1.2-.2.6-.1 1.2.1.7.6 1.3 1 1.7.1.1.7 1.2.8 1.5 0 0 .2 1-.4 1.1l-2.2.5c-1.4.2-2.4 1.5-2.4 3v1c0 .6.4 1.1 1 1.1h12c.6 0 1-.5 1-1.1v-1c0-1.5-1-2.8-2.4-3.1zM14 15H2v-1.1c0-1 .7-1.9 1.6-2.1l2.2-.5c.7-.1 1.2-.8 1.2-1.5v-.7c-.1-.4-.4-.9-.5-1.1-.2-.4-.4-.8-.6-.9-.3-.4-.6-.8-.7-1.2-.1-.4.2-.7.2-1 0 0 0-1.6.1-1.9C5.8 1.8 7 1 8 1c.5 0 .8.1 1.2.4 1.3.1 1.2.7 1.3 1.5.1.5.2 1.5.1 1.9 0 .3.3.6.2 1-.1.4-.4.8-.7 1.2-.2.2-.4.6-.6 1-.1.2-.5.8-.5 1.1v.7c0 .8.5 1.4 1.2 1.5l2.2.5c.9.2 1.6 1.1 1.6 2.1V15z"/>
  </symbol>
 </svg>
 <svg>
  <symbol id="recall" viewBox="0 0 16 16">
   <path d="M1 6.24C1 3.9 2.58 2 5 2c1.12 0 2.18.73 3 1.43C8.82 2.73 9.88 2 11 2c2.42 0 4 1.91 4 4.24 0 1.4-.8 2.81-1.96 4.19a43.39 43.39 0 01-4.46 4.35.88.88 0 01-1.16 0 43.5 43.5 0 01-4.46-4.35C1.8 9.05 1 7.65 1 6.24zM5 3C3.22 3 2 4.37 2 6.24c0 1.04.6 2.21 1.73 3.55A41.75 41.75 0 008 13.96a41.93 41.93 0 004.27-4.17C13.4 8.45 14 7.28 14 6.24 14 4.37 12.78 3 11 3c-.99 0-1.98.82-2.65 1.46L8 4.8l-.34-.33C6.98 3.82 5.99 3 5 3z"/>
  </symbol>
 </svg>
 <svg>
  <symbol id="problem" viewBox="0 0 16 16">
   <path d="M8 15A7 7 0 108 1a7 7 0 000 14zm0 1A8 8 0 108 0a8 8 0 000 16zM7 4a1 1 0 012 0v5a1 1 0 11-2 0V4zm1 9a1 1 0 100-2 1 1 0 000 2z"/>
  </symbol>
 </svg>
 <svg>
  <symbol id="rating" viewBox="0 0 16 16">
   <path d="M15.93 6.6c-.15-.46-.64-.83-1.32-.94l-3.63-.51-1.66-3.27C9.1 1.35 8.58 1 7.98 1s-1.14.46-1.36 1l-1.6 3.15-3.71.53c-.6.04-1.06.4-1.24.94A1.47 1.47 0 00.53 8.2l2.64 2.5-.62 3.52c-.11.42-.03.91.25 1.26.45.56 1.33.69 1.95.32l3.23-1.68 3.24 1.66c.62.38 1.5.3 1.97-.29.3-.36.36-.82.22-1.46l-.59-3.3 2.67-2.56c.45-.38.62-1.01.44-1.56zm-1.07.8l-2.91 2.76c-.17.14-.2.23-.15.43l.64 3.7c.03.1.1.41-.04.6-.13.15-.39.16-.53.07l-3.51-1.78a.93.93 0 00-.38-.11c-.1 0-.3.09-.39.14l-3.4 1.73c-.24.1-.46.09-.55-.04-.12-.08-.14-.34-.12-.46l.65-3.7c.06-.2.02-.46-.14-.6L1.2 7.46A.65.65 0 011 7c0-.13.23-.29.42-.33l3.92-.55c.22-.01.4-.15.48-.34l1.73-3.4c.07-.18.27-.37.44-.37.13 0 .35.13.42.3l1.7 3.32c.15.36.21.42.44.47l4 .57c.2.04.32.11.4.22.09.1.07.31-.09.52z"/>
  </symbol>
 </svg>
 <svg>
  <symbol id="timing" viewBox="0 0 16 16">
   <path d="M2.5 1H3v2.52c0 1.08.46 2.12 1.27 2.85.55.49.94.7 1.2.85.11.06.2.11.25.16A.82.82 0 016 8a.82.82 0 01-.28.62c-.05.05-.14.1-.26.17-.25.14-.64.35-1.2.85A3.84 3.84 0 003 12.48V15h-.5a.5.5 0 000 1h11a.5.5 0 000-1H13v-2.52a3.84 3.84 0 00-1.27-2.85 5.85 5.85 0 00-1.2-.85 1.52 1.52 0 01-.25-.16A.82.82 0 0110 8c0-.24.1-.46.28-.62a6.15 6.15 0 001.46-1.02A3.84 3.84 0 0013 3.51V1h.5a.5.5 0 000-1h-11a.5.5 0 000 1zM12 1H4v2.52c0 .8.34 1.57.94 2.1l1.45 1.02a1.83 1.83 0 010 2.72 3.4 3.4 0 01-.57.4c-.26.15-.55.32-.88.62a2.84 2.84 0 00-.9 1.62h7.92a2.84 2.84 0 00-.9-1.62 5.08 5.08 0 00-.88-.63c-.21-.12-.4-.23-.57-.39A1.84 1.84 0 019 8c0-.52.22-1.02.6-1.36.18-.16.37-.27.58-.4.26-.15.55-.32.88-.62a2.84 2.84 0 00.94-2.1V1zM4 15v-1h1v1H4zm2 0h1v-1h1v1h1v-1h1v1h1v-1h1v-1h-1v1h-1v-1H9v1H8v-1H7v1H6v-1H5v1h1v1z"/>
  </symbol>
 </svg>
 <svg>
  <symbol id="sum" viewBox="0 0 16 16">
   <path d="M12.5 15h-9a.5.5 0 01-.4-.8L8 8 3.1 1.8a.5.5 0 01.4-.8h9c.28 0 .5.22.5.5v2a.5.5 0 01-1 0V2H4.49l4.53 5.7a.5.5 0 010 .6L4.5 14H12v-1.5a.5.5 0 011 0v2a.5.5 0 01-.5.5z"/>
  </symbol>
 </svg>
 <svg>
  <symbol id="price" viewBox="0 0 16 16">
   <path d="M15 8A7 7 0 111 8a7 7 0 0114 0zm1 0A8 8 0 110 8a8 8 0 0116 0zM7 5v3h1.5a1.5 1.5 0 100-3H7zm0 4h1.5a2.5 2.5 0 000-5h-2a.5.5 0 00-.5.5V8h-.5a.5.5 0 000 1H6v1h-.5a.5.5 0 000 1H6v1.5a.5.5 0 001 0V11h1.5a.5.5 0 000-1H7V9z"/>
  </symbol>
 </svg>
 <svg>
  <symbol id="custom" viewBox="0 0 16 16">
   <path d="M.5 2a.5.5 0 00-.5.5v11a.5.5 0 001 0V4.04l7.1 9.75a.5.5 0 00.9-.29v-11a.5.5 0 00-1 0v9.46L.9 2.21A.5.5 0 00.5 2zM15 5.5v-1a1.5 1.5 0 00-3 0v1a1.5 1.5 0 003 0zM13.5 2A2.5 2.5 0 0011 4.5v1a2.5 2.5 0 005 0v-1A2.5 2.5 0 0013.5 2zM11 10.5a.5.5 0 01.5-.5h4a.5.5 0 010 1h-4a.5.5 0 01-.5-.5z"/>
  </symbol>
 </svg>
 <svg>
  <symbol id="arrow" viewBox="0 0 16 16">
   <path d="M8 15.5a.5.5 0 001 0V1.67l2.15 2.18a.5.5 0 10.7-.71l-3-3a.5.5 0 00-.4-.14.5.5 0 00-.31.14l-3 3a.5.5 0 10.7.71L8 1.67V15.5z"/>
  </symbol>
 </svg>
 <svg>
  <symbol id="arrow_ASC" viewBox="0 0 16 16">
   <path d="M12 7l-3-.75v8.25H7V6.25L4 7l4-5z"/>
  </symbol>
 </svg>
 <svg>
  <symbol id="arrow_DESC" viewBox="0 0 16 16">
   <path transform="rotate(180, 8, 8)" d="M12 7l-3-.75v8.25H7V6.25L4 7l4-5z"/>
  </symbol>
 </svg>
 <svg>
  <symbol id="non_sort_" viewBox="0 0 32 16">
   <path d="M17 4.5a1.5 1.5 0 113 0a1.5 1.5 0 01-3 0zm-.95-.5a2.5 2.5 0 014.9 0h1.55a.5.5 0 010 1h-1.55a2.5 2.5 0 01-4.9 0h-6.55a.5.5 0 010-1h6.55zm-2.55 6a1.5 1.5 0 110 3a1.5 1.5 0 010-3zm0-1a2.5 2.5 0 012.45 2h6.55a.5.5 0 010 1h-6.55a2.5 2.5 0 01-4.9 0h-1.55a.5.5 0 010-1h1.55a2.5 2.5 0 012.45-2z"/>
  </symbol>
 </svg>
 <svg>
  <symbol id="difficult_sort_" viewBox="0 0 32 16">
   <path d="M20.5 2a.5.5 0 010 1h-7a.5.5 0 010-1h7zm.5 4.5a.5.5 0 00-.5-.5h-9a.5.5 0 000 1h9a.5.5 0 00.5-.5zm-.5 3.5a.5.5 0 010 1h-11a.5.5 0 010-1h11zm0 4a.5.5 0 010 1h-13a.5.5 0 010-1h13z"/>
  </symbol>
 </svg>
 <svg>
  <symbol id="alphabet_ru_" viewBox="0 0 32 16">
   <path d="M8 .5c0-.3.2-.5.5-.5h2c.3 0 .5.2.5.5s-.2.5-.5.5h-1.5v14h1.5c.3 0 .5.2.5.5s-.2.5-.5.5h-2c-.3 0-.5-.2-.5-.5v-15zm8.5 9.5h2.5v3h-2.5c-.8 0-1.5-.7-1.5-1.5s.7-1.5 1.5-1.5zm2.5-1c.6 0 1 .4 1 1v5.5c0 .3-.2.5-.5.5s-.5-.2-.5-.5v-1.5h-2.7l-1.4 1.8c-.2.2-.5.3-.7.1c-.2-.2-.3-.5-.1-.7l1.2-1.5a2.6 2.6 0 01-1.3-2.2c0-1.4 1.1-2.5 2.5-2.5h2.5zm0-6v1h-4v-1c0-1.1.9-2 2-2a2 2 0 012 2zm-4 2h4v1.5c0 .3.2.5.5.5s.5-.2.5-.5v-3.5c0-1.7-1.3-3-3-3s-3 1.3-3 3v3.5c0 .3.2.5.5.5s.5-.2.5-.5v-1.5z"/>
  </symbol>
 </svg>
 <svg>
  <symbol id="alphabet_en_" viewBox="0 0 32 16">
   <path d="M8 .5a.5.5 0 01.5-.5h2a.5.5 0 010 1h-1.5v14h1.5a.5.5 0 010 1h-2a.5.5 0 01-.5-.5v-15zm6 9a.5.5 0 01.5-.5h5a.5.5 0 01.4.8a.5.5 0 01-.02.03l-4.31 5.17h3.93a.5.5 0 010 1h-5a.5.5 0 01-.36-.85l4.3-5.15h-3.94a.5.5 0 01-.5-.5zm5-6.5v1h-4v-1a2 2 0 014 0zm-4 2h4v1.5a.5.5 0 001 0v-3.5a3 3 0 10-6 0v3.5a.5.5 0 001 0v-1.5z"/>
  </symbol>
 </svg>
 <svg>
  <symbol id="time_" viewBox="0 0 32 16">
   <path d="M14 16a8 8 0 11.02-16.02a8 8 0 01-.02 16.02zm0-15a7 7 0 10.02 14.02a7 7 0 00-.02-14.02zm-1 2.5a.5.5 0 011 0v4.5h3.5a.5.5 0 010 1h-4a.5.5 0 01-.5-.5v-5z"/>
  </symbol>
 </svg>
 <svg>
  <symbol id="date_" viewBox="0 0 32 16">
   <path d="M9.5 1a.5.5 0 00-.5.5v.5h-1.17a1.8 1.8 0 00-1.83 1.75v10.5c0 .96.82 1.75 1.83 1.75h12.34a1.8 1.8 0 001.83-1.75v-10.5a1.8 1.8 0 00-1.83-1.75h-1.17v-.5a.5.5 0 00-1 0v.5h-8v-.5a.5.5 0 00-.5-.5zm8.5 2.5v-.55h-8v.55a.5.5 0 01-1 0v-.55h-1.17a.82.82 0 00-.83.8v10.5c0 .44.37.8.83.8h12.34c.46 0 .83-.36.83-.8v-10.5c0-.44-.37-.8-.83-.8h-1.17v.55a.5.5 0 01-1 0zm1.5 2.5h-11a.5.5 0 010-1h11a.5.5 0 010 1zm-8.5 3v-1h-2v1h2zm0 1v1h-2v-1h2zm0 3v-1h-2v1h2zm2-5h2v1h-2v-1zm2 2h-2v1h2v-1zm-2 2h2v1h-2v-1zm6-3v-1h-2v1h2zm0 1v1h-2v-1h2zm0 3v-1h-2v1h2z"/>
  </symbol>
 </svg>
 <svg>
  <symbol id="debt_" viewBox="0 0 32 16">
   <path d="M22 3a1 1 0 01-1 1h-2v10a2 2 0 01-2 2h-8.5c-.67 0-1.32-.27-1.8-.75a2.68 2.68 0 01-.7-1.84v-.41a1 1 0 011-1v-9.6c0-.66.04-1.44.5-1.9c.48-.48 1.33-.5 2-.5h10.5c.52 0 1.13.13 1.5.5s.5.89.5 1.4v1.1zm-5 12a1 1 0 001-1v-13h-8.61c-.39 0-.73 0-1.01.28c-.32.31-.38.69-.38 1.13v9.59h7.6c.22 0 .4.18.4.4v1.6a1 1 0 001 1zm-2-2v1c0 .36.1.7.27 1h-6.77c-.44 0-.81-.16-1.13-.47c-.3-.31-.37-.69-.37-1.12v-.41h8zm5-12h-1v2h2v-1.1c0-.5-.4-.9-.9-.9h-.1zm-10 2.5a.5.5 0 01.5-.5h5a.5.5 0 010 1h-5a.5.5 0 01-.5-.5zm0 3a.5.5 0 01.5-.5h5a.5.5 0 010 1h-5a.5.5 0 01-.5-.5zm.5 2.5a.5.5 0 000 1h5a.5.5 0 000-1h-5z"/>
  </symbol>
 </svg>
 <svg>
  <symbol id="deflection_" viewBox="0 0 32 16">
   <path d="M13.97 1a.5.5 0 00-.43.25l-6.5 13a.5.5 0 00.43.75h13a.5.5 0 00.44-.75l-6.5-13a.5.5 0 00-.44-.25zm-5.63 13 5.63-11.5 5.64 11.5h-11.27z"/>
  </symbol>
 </svg>
 <svg>
  <symbol id="number_" viewBox="0 0 32 16">
   <path d="m8.5 0a.5.5 0 00-.5.5v15a.5.5 0 00.5.5h2a.5.5 0 000-1h-1.5v-14h1.5a.5.5 0 000-1h-2zm6.5 10.5a.5.5 0 01.5-.5h3a.5.5 0 01.5.5v1.5h-3.5a.5.5 0 01-.5-.5v-1zm3.5-1.5a1.5 1.5 0 011.5 1.5v4c0 1-.5 1.5-1.5 1.5h-4a.5.5 0 010-1h4a.5.5 0 00.5-.5v-1.5h-3.5a1.5 1.5 0 01-1.5-1.5v-1a1.5 1.5 0 011.5-1.5h3zm-.5-8.5a.5.5 0 00-.5-.5h-2a.5.5 0 000 1h1.5v5h-1.5a.5.5 0 000 1h4a.5.5 0 000-1h-1.5v-5.5z"/>
  </symbol>
 </svg>
 <svg>
  <symbol id="partner_" viewBox="0 0 32 16">
   <path d="M18.6 10.8l-2.2-.5c-.6-.1-.4-1-.4-1 .1-.3.7-1.4.8-1.4.4-.4.9-1 1-1.7.1-.6 0-1-.1-1.3 0-.5 0-1.5-.2-2.2 0-.8-.2-1.3-.5-1.7C10.7.7 9.8.5 9.7.5 9.2.2 8.6 0 8 0 6.7.1 5 .9 4.5 2.6c-.2.4-.2 2.3-.2 2.3-.1.2-.2.6-.1 1.2.1.7.6 1.3 1 1.7.1.1.7 1.2.8 1.5 0 0 .2 1-.4 1.1l-2.2.5c-1.4.2-2.4 1.5-2.4 3v1c0 .6.4 1.1 1 1.1h12c.6 0 1-.5 1-1.1v-1c0-1.5-1-2.8-2.4-3.1zM14 15H2v-1.1c0-1 .7-1.9 1.6-2.1l2.2-.5c.7-.1 1.2-.8 1.2-1.5v-.7c-.1-.4-.4-.9-.5-1.1-.2-.4-.4-.8-.6-.9-.3-.4-.6-.8-.7-1.2-.1-.4.2-.7.2-1 0 0 0-1.6.1-1.9C5.8 1.8 7 1 8 1c.5 0 .8.1 1.2.4 1.3.1 1.2.7 1.3 1.5.1.5.2 1.5.1 1.9 0 .3.3.6.2 1-.1.4-.4.8-.7 1.2-.2.2-.4.6-.6 1-.1.2-.5.8-.5 1.1v.7c0 .8.5 1.4 1.2 1.5l2.2.5c.9.2 1.6 1.1 1.6 2.1V15z"/>
  </symbol>
 </svg>
 <svg>
  <symbol id="recall_" viewBox="0 0 32 16">
   <path d="M7 6.24c0-2.34 1.58-4.24 4-4.24c1.12 0 2.18.73 3 1.43c.82-.7 1.88-1.43 3-1.43c2.42 0 4 1.91 4 4.24c0 1.4-.8 2.81-1.96 4.19a43.39 43.39 0 01-4.46 4.35a.88.88 0 01-1.16 0a43.5 43.5 0 01-4.46-4.35c-1.16-1.38-1.96-2.78-1.96-4.19zm4-3.24c-1.78 0-3 1.37-3 3.24c0 1.04.6 2.21 1.73 3.55a41.75 41.75 0 004.27 4.17a41.93 41.93 0 004.27-4.17c1.13-1.34 1.73-2.51 1.73-3.55c0-1.87-1.22-3.24-3-3.24c-.99 0-1.98.82-2.65 1.46l-.35.34-.34-.33c-.68-.65-1.67-1.47-2.66-1.47z"/>
  </symbol>
 </svg>
 <svg>
  <symbol id="problem_" viewBox="0 0 32 16">
   <path d="M14 15a7 7 0 100-14a7 7 0 000 14zm0 1a8 8 0 100-16a8 8 0 000 16zm-1-12a1 1 0 012 0v5a1 1 0 11-2 0v-5zm1 9a1 1 0 100-2a1 1 0 000 2z"/>
  </symbol>
 </svg>
 <svg>
  <symbol id="rating_" viewBox="0 0 32 16">
   <path d="M21.93 6.6c-.15-.46-.64-.83-1.32-.94l-3.63-.51-1.66-3.27c-.22-.53-.74-.88-1.34-.88s-1.14.46-1.36 1l-1.6 3.15-3.71.53c-.6.04-1.06.4-1.24.94a1.47 1.47 0 00.46 1.58l2.64 2.5-.62 3.52c-.11.42-.03.91.25 1.26c.45.56 1.33.69 1.95.32l3.23-1.68 3.24 1.66c.62.38 1.5.3 1.97-.29c.3-.36.36-.82.22-1.46l-.59-3.3 2.67-2.56c.45-.38.62-1.01.44-1.56zm-1.07.8-2.91 2.76c-.17.14-.2.23-.15.43l.64 3.7c.03.1.1.41-.04.6c-.13.15-.39.16-.53.07l-3.51-1.78a.93.93 0 00-.38-.11c-.1 0-.3.09-.39.14l-3.4 1.73c-.24.1-.46.09-.55-.04c-.12-.08-.14-.34-.12-.46l.65-3.7c.06-.2.02-.46-.14-.6l-2.83-2.68a.65.65 0 01-.2-.46c0-.13.23-.29.42-.33l3.92-.55c.22-.01.4-.15.48-.34l1.73-3.4c.07-.18.27-.37.44-.37c.13 0 .35.13.42.3l1.7 3.32c.15.36.21.42.44.47l4 .57c.2.04.32.11.4.22c.09.1.07.31-.09.52z"/>
  </symbol>
 </svg>
 <svg>
  <symbol id="timing_" viewBox="0 0 32 16">
   <path d="m8.5 1h.5v2.52c0 1.08.46 2.12 1.27 2.85c.55.49.94.7 1.2.85c.11.06.2.11.25.16a.82.82 0 01.28.62a.82.82 0 01-.28.62c-.05.05-.14.1-.26.17c-.25.14-.64.35-1.2.85a3.84 3.84 0 00-1.26 2.84v2.52h-.5a.5.5 0 000 1h11a.5.5 0 000-1h-.5v-2.52a3.84 3.84 0 00-1.27-2.85a5.85 5.85 0 00-1.2-.85a1.52 1.52 0 01-.25-.16a.82.82 0 01-.28-.62c0-.24.1-.46.28-.62a6.15 6.15 0 001.46-1.02a3.84 3.84 0 001.26-2.85v-2.51h.5a.5.5 0 000-1h-11a.5.5 0 000 1zm9.5 0h-8v2.52c0 .8.34 1.57.94 2.1l1.45 1.02a1.83 1.83 0 010 2.72a3.4 3.4 0 01-.57.4c-.26.15-.55.32-.88.62a2.84 2.84 0 00-.9 1.62h7.92a2.84 2.84 0 00-.9-1.62a5.08 5.08 0 00-.88-.63c-.21-.12-.4-.23-.57-.39a1.84 1.84 0 01-.61-1.36c0-.52.22-1.02.6-1.36c.18-.16.37-.27.58-.4c.26-.15.55-.32.88-.62a2.84 2.84 0 00.94-2.1v-2.52zm-8 14v-1h1v1h-1zm2 0h1v-1h1v1h1v-1h1v1h1v-1h1v-1h-1v1h-1v-1h-1v1h-1v-1h-1v1h-1v-1h-1v1h1v1z"/>
  </symbol>
 </svg>
 <svg>
  <symbol id="sum_" viewBox="0 0 32 16">
   <path d="M18.5 15h-9a.5.5 0 01-.4-.8l4.9-6.2-4.9-6.2a.5.5 0 01.4-.8h9c.28 0 .5.22.5.5v2a.5.5 0 01-1 0v-1.5h-7.51l4.53 5.7a.5.5 0 010 .6l-4.52 5.7h7.5v-1.5a.5.5 0 011 0v2a.5.5 0 01-.5.5z"/>
  </symbol>
 </svg>
 <svg>
  <symbol id="price_" viewBox="0 0 32 16">
   <path d="M21 8a7 7 0 11-14 0a7 7 0 0114 0zm1 0a8 8 0 11-16 0a8 8 0 0116 0zm-9-3v3h1.5a1.5 1.5 0 100-3h-1.5zm0 4h1.5a2.5 2.5 0 000-5h-2a.5.5 0 00-.5.5v3.5h-.5a.5.5 0 000 1h.5v1h-.5a.5.5 0 000 1h.5v1.5a.5.5 0 001 0v-1.5h1.5a.5.5 0 000-1h-1.5v-1z"/>
  </symbol>
 </svg>
 <svg>
  <symbol id="custom_" viewBox="0 0 32 16">
   <path d="M6.5 2a.5.5 0 00-.5.5v11a.5.5 0 001 0v-9.46l7.1 9.75a.5.5 0 00.9-.29v-11a.5.5 0 00-1 0v9.46l-7.1-9.75a.5.5 0 00-.4-.21zm14.5 3.5v-1a1.5 1.5 0 00-3 0v1a1.5 1.5 0 003 0zm-1.5-3.5a2.5 2.5 0 00-2.5 2.5v1a2.5 2.5 0 005 0v-1a2.5 2.5 0 00-2.5-2.5zm-2.5 8.5a.5.5 0 01.5-.5h4a.5.5 0 010 1h-4a.5.5 0 01-.5-.5z"/>
  </symbol>
 </svg>
 <svg>
  <symbol id="difficult_sort_ASC" viewBox="0 0 32 16">
   <path d="M18.5 2a.5.5 0 010 1h-7a.5.5 0 010-1h7zm.5 4.5a.5.5 0 00-.5-.5h-9a.5.5 0 000 1h9a.5.5 0 00.5-.5zm-.5 3.5a.5.5 0 010 1h-11a.5.5 0 010-1h11zm0 4a.5.5 0 010 1h-13a.5.5 0 010-1h13zm5.5 1.5a.5.5 0 001 0V1.67l2.15 2.18a.5.5 0 10.7-.71l-3-3a.5.5 0 00-.4-.14.5.5 0 00-.31.14l-3 3a.5.5 0 10.7.71L24 1.67V15.5z"/>
  </symbol>
 </svg>
 <svg>
  <symbol id="alphabet_ru_ASC" viewBox="0 0 32 16">
   <path d="M6 .5c0-.3.2-.5.5-.5h2c.3 0 .5.2.5.5s-.2.5-.5.5H7v14h1.5c.3 0 .5.2.5.5s-.2.5-.5.5h-2c-.3 0-.5-.2-.5-.5V.5zM17 9c.6 0 1 .4 1 1v5.5c0 .3-.2.5-.5.5s-.5-.2-.5-.5V14h-2.7l-1.4 1.8c-.2.2-.5.3-.7.1-.2-.2-.3-.5-.1-.7l1.2-1.5a2.6 2.6 0 01-1.3-2.2c0-1.4 1.1-2.5 2.5-2.5H17zm-2.5 1H17v3h-2.5c-.8 0-1.5-.7-1.5-1.5s.7-1.5 1.5-1.5zM17 3v1h-4V3c0-1.1.9-2 2-2a2 2 0 012 2zm-4 2h4v1.5c0 .3.2.5.5.5s.5-.2.5-.5V3c0-1.7-1.3-3-3-3s-3 1.3-3 3v3.5c0 .3.2.5.5.5s.5-.2.5-.5V5zm11 10.5a.5.5 0 001 0V1.67l2.15 2.18a.5.5 0 10.7-.71l-3-3a.5.5 0 00-.4-.14.5.5 0 00-.31.14l-3 3a.5.5 0 10.7.71L24 1.67V15.5z"/>
  </symbol>
 </svg>
 <svg>
  <symbol id="alphabet_en_ASC" viewBox="0 0 32 16">
   <path d="M6 .5a.5.5 0 01.5-.5h2a.5.5 0 010 1H7v14h1.5a.5.5 0 010 1h-2a.5.5 0 01-.5-.5V.5zm6 9a.5.5 0 01.5-.5h5a.5.5 0 01.4.8.5.5 0 01-.02.03L13.57 15h3.93a.5.5 0 010 1h-5a.5.5 0 01-.36-.85l4.3-5.15H12.5a.5.5 0 01-.5-.5zM17 3v1h-4V3a2 2 0 014 0zm-4 2h4v1.5a.5.5 0 001 0V3a3 3 0 10-6 0v3.5a.5.5 0 001 0V5zm11 10.5a.5.5 0 001 0V1.67l2.15 2.18a.5.5 0 10.7-.71l-3-3a.5.5 0 00-.4-.14.5.5 0 00-.31.14l-3 3a.5.5 0 10.7.71L24 1.67V15.5z"/>
  </symbol>
 </svg>
 <svg>
  <symbol id="time_ASC" viewBox="0 0 32 16">
   <path d="M12 16a8 8 0 11.02-16.02A8 8 0 0112 16zm0-15a7 7 0 10.02 14.02A7 7 0 0012 1zm-1 2.5a.5.5 0 011 0V8h3.5a.5.5 0 010 1h-4a.5.5 0 01-.5-.5v-5zm13 12a.5.5 0 001 0V1.67l2.15 2.18a.5.5 0 10.7-.71l-3-3a.5.5 0 00-.4-.14.5.5 0 00-.31.14l-3 3a.5.5 0 10.7.71L24 1.67V15.5z"/>
  </symbol>
 </svg>
 <svg>
  <symbol id="date_ASC" viewBox="0 0 32 16">
   <path d="M7.5 1a.5.5 0 00-.5.5V2H5.83A1.8 1.8 0 004 3.75v10.5c0 .96.82 1.75 1.83 1.75h12.34A1.8 1.8 0 0020 14.25V3.75A1.8 1.8 0 0018.17 2H17v-.5a.5.5 0 00-1 0V2H8v-.5a.5.5 0 00-.5-.5zM16 3.5v-.55H8v.55a.5.5 0 01-1 0v-.55H5.83a.82.82 0 00-.83.8v10.5c0 .44.37.8.83.8h12.34c.46 0 .83-.36.83-.8V3.75c0-.44-.37-.8-.83-.8H17v.55a.5.5 0 01-1 0zM17.5 6h-11a.5.5 0 010-1h11a.5.5 0 010 1zM9 9V8H7v1h2zm0 1v1H7v-1h2zm0 3v-1H7v1h2zm2-5h2v1h-2V8zm2 2h-2v1h2v-1zm-2 2h2v1h-2v-1zm6-3V8h-2v1h2zm0 1v1h-2v-1h2zm0 3v-1h-2v1h2zm7 2.5a.5.5 0 001 0V1.67l2.15 2.18a.5.5 0 10.7-.71l-3-3a.5.5 0 00-.4-.14.5.5 0 00-.31.14l-3 3a.5.5 0 10.7.71L24 1.67V15.5z"/>
  </symbol>
 </svg>
 <svg>
  <symbol id="debt_ASC" viewBox="0 0 32 16">
   <path d="M20 3a1 1 0 01-1 1h-2v10a2 2 0 01-2 2H6.5c-.67 0-1.32-.27-1.8-.75a2.68 2.68 0 01-.7-1.84V13a1 1 0 011-1V2.4c0-.66.04-1.44.5-1.9.48-.48 1.33-.5 2-.5H18c.52 0 1.13.13 1.5.5s.5.89.5 1.4V3zm-5 12a1 1 0 001-1V1H7.39c-.39 0-.73 0-1.01.28-.32.31-.38.69-.38 1.13V12h7.6c.22 0 .4.18.4.4V14a1 1 0 001 1zm-2-2v1c0 .36.1.7.27 1H6.5c-.44 0-.81-.16-1.12-.47-.32-.31-.38-.69-.38-1.12V13h8zm5-12h-1v2h2V1.9c0-.5-.4-.9-.9-.9H18zM8 3.5a.5.5 0 01.5-.5h5a.5.5 0 010 1h-5a.5.5 0 01-.5-.5zm0 3a.5.5 0 01.5-.5h5a.5.5 0 010 1h-5a.5.5 0 01-.5-.5zM8.5 9a.5.5 0 000 1h5a.5.5 0 000-1h-5zM24 15.5a.5.5 0 001 0V1.67l2.15 2.18a.5.5 0 10.7-.71l-3-3a.5.5 0 00-.4-.14.5.5 0 00-.31.14l-3 3a.5.5 0 10.7.71L24 1.67V15.5z"/>
  </symbol>
 </svg>
 <svg>
  <symbol id="deflection_ASC" viewBox="0 0 32 16">
   <path d="M11.97 1a.5.5 0 00-.43.25l-6.5 13a.5.5 0 00.43.75h13a.5.5 0 00.44-.75l-6.5-13a.5.5 0 00-.44-.25zM6.34 14l5.63-11.5L17.61 14H6.34zM24 15.5a.5.5 0 001 0V1.67l2.15 2.18a.5.5 0 10.7-.71l-3-3a.5.5 0 00-.4-.14.5.5 0 00-.31.14l-3 3a.5.5 0 10.7.71L24 1.67V15.5z"/>
  </symbol>
 </svg>
 <svg>
  <symbol id="number_ASC" viewBox="0 0 32 16">
   <path d="M6.5 0a.5.5 0 00-.5.5v15a.5.5 0 00.5.5h2a.5.5 0 000-1H7V1h1.5a.5.5 0 000-1h-2zM13 10.5a.5.5 0 01.5-.5h3a.5.5 0 01.5.5V12h-3.5a.5.5 0 01-.5-.5v-1zM16.5 9a1.5 1.5 0 011.5 1.5v4c0 1-.5 1.5-1.5 1.5h-4a.5.5 0 010-1h4a.5.5 0 00.5-.5V13h-3.5a1.5 1.5 0 01-1.5-1.5v-1A1.5 1.5 0 0113.5 9h3zM16 .5a.5.5 0 00-.5-.5h-2a.5.5 0 000 1H15v5h-1.5a.5.5 0 000 1h4a.5.5 0 000-1H16V.5zm8 15a.5.5 0 001 0V1.67l2.15 2.18a.5.5 0 10.7-.71l-3-3a.5.5 0 00-.4-.14.5.5 0 00-.31.14l-3 3a.5.5 0 10.7.71L24 1.67V15.5z"/>
  </symbol>
 </svg>
 <svg>
  <symbol id="partner_ASC" viewBox="0 0 32 16">
   <path d="M16.6 10.8l-2.2-.5c-.6-.1-.4-1-.4-1 .1-.3.7-1.4.8-1.4.4-.4.9-1 1-1.7.1-.6 0-1-.1-1.3 0-.5 0-1.5-.2-2.2 0-.8-.2-1.3-.5-1.7-.3-.3-1.2-.5-1.3-.5C13.2.2 12.6 0 12 0c-1.3.1-3 .9-3.5 2.6-.2.4-.2 2.3-.2 2.3-.1.2-.2.6-.1 1.2.1.7.6 1.3 1 1.7.1.1.7 1.2.8 1.5 0 0 .2 1-.4 1.1l-2.2.5c-1.4.2-2.4 1.5-2.4 3v1c0 .6.4 1.1 1 1.1h12c.6 0 1-.5 1-1.1v-1c0-1.5-1-2.8-2.4-3.1zM18 15H6v-1.1c0-1 .7-1.9 1.6-2.1l2.2-.5c.7-.1 1.2-.8 1.2-1.5v-.7c-.1-.4-.4-.9-.5-1.1-.2-.4-.4-.8-.6-.9-.3-.4-.6-.8-.7-1.2-.1-.4.2-.7.2-1 0 0 0-1.6.1-1.9.3-1.2 1.5-2 2.5-2 .5 0 .8.1 1.2.4 1.3.1 1.2.7 1.3 1.5.1.5.2 1.5.1 1.9 0 .3.3.6.2 1-.1.4-.4.8-.7 1.2-.2.2-.4.6-.6 1-.1.2-.5.8-.5 1.1v.7c0 .8.5 1.4 1.2 1.5l2.2.5c.9.2 1.6 1.1 1.6 2.1V15zm6 .5a.5.5 0 001 0V1.67l2.15 2.18a.5.5 0 10.7-.71l-3-3a.5.5 0 00-.4-.14.5.5 0 00-.31.14l-3 3a.5.5 0 10.7.71L24 1.67V15.5z"/>
  </symbol>
 </svg>
 <svg>
  <symbol id="recall_ASC" viewBox="0 0 32 16">
   <path d="M5 6.24c0-2.34 1.58-4.24 4-4.24c1.12 0 2.18.73 3 1.43c.82-.7 1.88-1.43 3-1.43c2.42 0 4 1.91 4 4.24c0 1.4-.8 2.81-1.96 4.19a43.39 43.39 0 01-4.46 4.35a.88.88 0 01-1.16 0a43.5 43.5 0 01-4.46-4.35c-1.16-1.38-1.96-2.78-1.96-4.19zm4-3.24c-1.78 0-3 1.37-3 3.24c0 1.04.6 2.21 1.73 3.55a41.75 41.75 0 004.27 4.17a41.93 41.93 0 004.27-4.17c1.13-1.34 1.73-2.51 1.73-3.55c0-1.87-1.22-3.24-3-3.24c-.99 0-1.98.82-2.65 1.46l-.35.34-.34-.33c-.68-.65-1.67-1.47-2.66-1.47z"/>
   <path d="M24 15.5a.5.5 0 001 0V1.67l2.15 2.18a.5.5 0 10.7-.71l-3-3a.5.5 0 00-.4-.14.5.5 0 00-.31.14l-3 3a.5.5 0 10.7.71L24 1.67V15.5z"/>
  </symbol>
 </svg>
 <svg>
  <symbol id="problem_ASC" viewBox="0 0 32 16">
   <path d="M12 15a7 7 0 100-14 7 7 0 000 14zm0 1a8 8 0 100-16 8 8 0 000 16zM11 4a1 1 0 112 0v5a1 1 0 11-2 0V4zm1 9a1 1 0 100-2 1 1 0 000 2zm12 2.5a.5.5 0 001 0V1.67l2.15 2.18a.5.5 0 10.7-.71l-3-3a.5.5 0 00-.4-.14.5.5 0 00-.31.14l-3 3a.5.5 0 10.7.71L24 1.67V15.5z"/>
  </symbol>
 </svg>
 <svg>
  <symbol id="rating_ASC" viewBox="0 0 32 16">
   <path d="M19.93 6.6c-.15-.46-.64-.83-1.32-.94l-3.63-.51-1.66-3.27c-.22-.53-.74-.88-1.34-.88s-1.14.46-1.36 1l-1.6 3.15-3.71.53c-.6.04-1.06.4-1.24.94a1.47 1.47 0 00.46 1.58l2.64 2.5-.62 3.52c-.11.42-.03.91.25 1.26c.45.56 1.33.69 1.95.32l3.23-1.68 3.24 1.66c.62.38 1.5.3 1.97-.29c.3-.36.36-.82.22-1.46l-.59-3.3 2.67-2.56c.45-.38.62-1.01.44-1.56zm-1.07.8-2.91 2.76c-.17.14-.2.23-.15.43l.64 3.7c.03.1.1.41-.04.6c-.13.15-.39.16-.53.07l-3.51-1.78a.93.93 0 00-.38-.11c-.1 0-.3.09-.39.14l-3.4 1.73c-.24.1-.46.09-.55-.04c-.12-.08-.14-.34-.12-.46l.65-3.7c.06-.2.02-.46-.14-.6l-2.83-2.68a.65.65 0 01-.2-.46c0-.13.23-.29.42-.33l3.92-.55c.22-.01.4-.15.48-.34l1.73-3.4c.07-.18.27-.37.44-.37c.13 0 .35.13.42.3l1.7 3.32c.15.36.21.42.44.47l4 .57c.2.04.32.11.4.22c.09.1.07.31-.09.52z"/>
   <path d="M24 15.5a.5.5 0 001 0V1.67l2.15 2.18a.5.5 0 10.7-.71l-3-3a.5.5 0 00-.4-.14.5.5 0 00-.31.14l-3 3a.5.5 0 10.7.71L24 1.67V15.5z"/>
  </symbol>
 </svg>
 <svg>
  <symbol id="timing_ASC" viewBox="0 0 32 16">
   <path d="M6.5 1H7v2.52c0 1.08.46 2.12 1.27 2.85.55.49.94.7 1.2.85.11.06.2.11.25.16A.82.82 0 0110 8a.82.82 0 01-.28.62c-.05.05-.14.1-.26.17-.25.14-.64.35-1.2.85A3.84 3.84 0 007 12.48V15h-.5a.5.5 0 000 1h11a.5.5 0 000-1H17v-2.52a3.84 3.84 0 00-1.27-2.85 5.85 5.85 0 00-1.2-.85 1.52 1.52 0 01-.25-.16A.82.82 0 0114 8c0-.24.1-.46.28-.62a6.15 6.15 0 001.46-1.02A3.84 3.84 0 0017 3.51V1h.5a.5.5 0 000-1h-11a.5.5 0 000 1zM16 1H8v2.52c0 .8.34 1.57.94 2.1l1.45 1.02a1.83 1.83 0 010 2.72 3.4 3.4 0 01-.57.4c-.26.15-.55.32-.88.62a2.84 2.84 0 00-.9 1.62h7.92a2.84 2.84 0 00-.9-1.62 5.08 5.08 0 00-.88-.63c-.21-.12-.4-.23-.57-.39A1.84 1.84 0 0113 8c0-.52.22-1.02.6-1.36.18-.16.37-.27.58-.4.26-.15.55-.32.88-.62a2.84 2.84 0 00.94-2.1V1zM8 15v-1h1v1H8zm2 0h1v-1h1v1h1v-1h1v1h1v-1h1v-1h-1v1h-1v-1h-1v1h-1v-1h-1v1h-1v-1H9v1h1v1zm14 .5a.5.5 0 001 0V1.67l2.15 2.18a.5.5 0 10.7-.71l-3-3a.5.5 0 00-.4-.14.5.5 0 00-.31.14l-3 3a.5.5 0 10.7.71L24 1.67V15.5z"/>
  </symbol>
 </svg>
 <svg>
  <symbol id="sum_ASC" viewBox="0 0 32 16">
   <path d="M16.5 15h-9a.5.5 0 01-.4-.8L12 8 7.1 1.8a.5.5 0 01.4-.8h9c.28 0 .5.22.5.5v2a.5.5 0 01-1 0V2H8.49l4.53 5.7a.5.5 0 010 .6L8.5 14H16v-1.5a.5.5 0 011 0v2a.5.5 0 01-.5.5zm7.5.5a.5.5 0 001 0V1.67l2.15 2.18a.5.5 0 10.7-.71l-3-3a.5.5 0 00-.4-.14.5.5 0 00-.31.14l-3 3a.5.5 0 10.7.71L24 1.67V15.5z"/>
  </symbol>
 </svg>
 <svg>
  <symbol id="price_ASC" viewBox="0 0 32 16">
   <path d="M19 8A7 7 0 115 8a7 7 0 0114 0zm1 0A8 8 0 114 8a8 8 0 0116 0zm-9-3v3h1.5a1.5 1.5 0 000-3H11zm0 4h1.5a2.5 2.5 0 000-5h-2a.5.5 0 00-.5.5V8h-.5a.5.5 0 000 1h.5v1h-.5a.5.5 0 000 1h.5v1.5a.5.5 0 001 0V11h1.5a.5.5 0 000-1H11V9zm13 6.5a.5.5 0 001 0V1.67l2.15 2.18a.5.5 0 10.7-.71l-3-3a.5.5 0 00-.4-.14.5.5 0 00-.31.14l-3 3a.5.5 0 10.7.71L24 1.67V15.5z"/>
  </symbol>
 </svg>
 <svg>
  <symbol id="custom_ASC" viewBox="0 0 32 16">
   <path d="M4.5 2a.5.5 0 00-.5.5v11a.5.5 0 001 0v-9.46l7.1 9.75a.5.5 0 00.9-.29v-11a.5.5 0 00-1 0v9.46l-7.1-9.75a.5.5 0 00-.4-.21zm14.5 3.5v-1a1.5 1.5 0 00-3 0v1a1.5 1.5 0 003 0zm-1.5-3.5a2.5 2.5 0 00-2.5 2.5v1a2.5 2.5 0 005 0v-1a2.5 2.5 0 00-2.5-2.5zm-2.5 8.5a.5.5 0 01.5-.5h4a.5.5 0 010 1h-4a.5.5 0 01-.5-.5z"/>
   <path d="M24 15.5a.5.5 0 001 0V1.67l2.15 2.18a.5.5 0 10.7-.71l-3-3a.5.5 0 00-.4-.14.5.5 0 00-.31.14l-3 3a.5.5 0 10.7.71L24 1.67V15.5z"/>
  </symbol>
 </svg>
 <svg>
  <symbol id="difficult_sort_DESC" viewBox="0 0 32 16">
   <path d="M18.5 2a.5.5 0 010 1h-7a.5.5 0 010-1h7zm.5 4.5a.5.5 0 00-.5-.5h-9a.5.5 0 000 1h9a.5.5 0 00.5-.5zm-.5 3.5a.5.5 0 010 1h-11a.5.5 0 010-1h11zm0 4a.5.5 0 010 1h-13a.5.5 0 010-1h13z"/>
   <path transform="rotate(180 24.5 8)" d="M24 15.5a.5.5 0 001 0V1.67l2.15 2.18a.5.5 0 10.7-.71l-3-3a.5.5 0 00-.4-.14.5.5 0 00-.31.14l-3 3a.5.5 0 10.7.71L24 1.67V15.5z"/>
  </symbol>
 </svg>
 <svg>
  <symbol id="alphabet_ru_DESC" viewBox="0 0 32 16">
   <path d="M6 .5c0-.3.2-.5.5-.5h2c.3 0 .5.2.5.5s-.2.5-.5.5H7v14h1.5c.3 0 .5.2.5.5s-.2.5-.5.5h-2c-.3 0-.5-.2-.5-.5V.5zM17 9c.6 0 1 .4 1 1v5.5c0 .3-.2.5-.5.5s-.5-.2-.5-.5V14h-2.7l-1.4 1.8c-.2.2-.5.3-.7.1-.2-.2-.3-.5-.1-.7l1.2-1.5a2.6 2.6 0 01-1.3-2.2c0-1.4 1.1-2.5 2.5-2.5H17zm-2.5 1H17v3h-2.5c-.8 0-1.5-.7-1.5-1.5s.7-1.5 1.5-1.5zM17 3v1h-4V3c0-1.1.9-2 2-2a2 2 0 012 2zm-4 2h4v1.5c0 .3.2.5.5.5s.5-.2.5-.5V3c0-1.7-1.3-3-3-3s-3 1.3-3 3v3.5c0 .3.2.5.5.5s.5-.2.5-.5V5z"/>
   <path transform="rotate(180 24.5 8)" d="M24 15.5a.5.5 0 001 0V1.67l2.15 2.18a.5.5 0 10.7-.71l-3-3a.5.5 0 00-.4-.14.5.5 0 00-.31.14l-3 3a.5.5 0 10.7.71L24 1.67V15.5z"/>
  </symbol>
 </svg>
 <svg>
  <symbol id="alphabet_en_DESC" viewBox="0 0 32 16">
   <path d="M6 .5a.5.5 0 01.5-.5h2a.5.5 0 010 1H7v14h1.5a.5.5 0 010 1h-2a.5.5 0 01-.5-.5V.5zm6 9a.5.5 0 01.5-.5h5a.5.5 0 01.4.8.5.5 0 01-.02.03L13.57 15h3.93a.5.5 0 010 1h-5a.5.5 0 01-.36-.85l4.3-5.15H12.5a.5.5 0 01-.5-.5zM17 3v1h-4V3a2 2 0 014 0zm-4 2h4v1.5a.5.5 0 001 0V3a3 3 0 10-6 0v3.5a.5.5 0 001 0V5z"/>
   <path transform="rotate(180 24.5 8)" d="M24 15.5a.5.5 0 001 0V1.67l2.15 2.18a.5.5 0 10.7-.71l-3-3a.5.5 0 00-.4-.14.5.5 0 00-.31.14l-3 3a.5.5 0 10.7.71L24 1.67V15.5z"/>
  </symbol>
 </svg>
 <svg>
  <symbol id="time_DESC" viewBox="0 0 32 16">
   <path d="M12 16a8 8 0 11.02-16.02A8 8 0 0112 16zm0-15a7 7 0 10.02 14.02A7 7 0 0012 1zm-1 2.5a.5.5 0 011 0V8h3.5a.5.5 0 010 1h-4a.5.5 0 01-.5-.5v-5z"/>
   <path transform="rotate(180 24.5 8)" d="M24 15.5a.5.5 0 001 0V1.67l2.15 2.18a.5.5 0 10.7-.71l-3-3a.5.5 0 00-.4-.14.5.5 0 00-.31.14l-3 3a.5.5 0 10.7.71L24 1.67V15.5z"/>
  </symbol>
 </svg>
 <svg>
  <symbol id="date_DESC" viewBox="0 0 32 16">
   <path d="M7.5 1a.5.5 0 00-.5.5V2H5.83A1.8 1.8 0 004 3.75v10.5c0 .96.82 1.75 1.83 1.75h12.34A1.8 1.8 0 0020 14.25V3.75A1.8 1.8 0 0018.17 2H17v-.5a.5.5 0 00-1 0V2H8v-.5a.5.5 0 00-.5-.5zM16 3.5v-.55H8v.55a.5.5 0 01-1 0v-.55H5.83a.82.82 0 00-.83.8v10.5c0 .44.37.8.83.8h12.34c.46 0 .83-.36.83-.8V3.75c0-.44-.37-.8-.83-.8H17v.55a.5.5 0 01-1 0zM17.5 6h-11a.5.5 0 010-1h11a.5.5 0 010 1zM9 9V8H7v1h2zm0 1v1H7v-1h2zm0 3v-1H7v1h2zm2-5h2v1h-2V8zm2 2h-2v1h2v-1zm-2 2h2v1h-2v-1zm6-3V8h-2v1h2zm0 1v1h-2v-1h2zm0 3v-1h-2v1h2z"/>
   <path transform="rotate(180 24.5 8)" d="M24 15.5a.5.5 0 001 0V1.67l2.15 2.18a.5.5 0 10.7-.71l-3-3a.5.5 0 00-.4-.14.5.5 0 00-.31.14l-3 3a.5.5 0 10.7.71L24 1.67V15.5z"/>
  </symbol>
 </svg>
 <svg>
  <symbol id="debt_DESC" viewBox="0 0 32 16">
   <path d="M20 3a1 1 0 01-1 1h-2v10a2 2 0 01-2 2H6.5c-.67 0-1.32-.27-1.8-.75a2.68 2.68 0 01-.7-1.84V13a1 1 0 011-1V2.4c0-.66.04-1.44.5-1.9.48-.48 1.33-.5 2-.5H18c.52 0 1.13.13 1.5.5s.5.89.5 1.4V3zm-5 12a1 1 0 001-1V1H7.39c-.39 0-.73 0-1.01.28-.32.31-.38.69-.38 1.13V12h7.6c.22 0 .4.18.4.4V14a1 1 0 001 1zm-2-2v1c0 .36.1.7.27 1H6.5c-.44 0-.81-.16-1.12-.47-.32-.31-.38-.69-.38-1.12V13h8zm5-12h-1v2h2V1.9c0-.5-.4-.9-.9-.9H18zM8 3.5a.5.5 0 01.5-.5h5a.5.5 0 010 1h-5a.5.5 0 01-.5-.5zm0 3a.5.5 0 01.5-.5h5a.5.5 0 010 1h-5a.5.5 0 01-.5-.5zM8.5 9a.5.5 0 000 1h5a.5.5 0 000-1h-5z"/>
   <path transform="rotate(180 24.5 8)" d="M24 15.5a.5.5 0 001 0V1.67l2.15 2.18a.5.5 0 10.7-.71l-3-3a.5.5 0 00-.4-.14.5.5 0 00-.31.14l-3 3a.5.5 0 10.7.71L24 1.67V15.5z"/>
  </symbol>
 </svg>
 <svg>
  <symbol id="deflection_DESC" viewBox="0 0 32 16">
   <path d="M11.97 1a.5.5 0 00-.43.25l-6.5 13a.5.5 0 00.43.75h13a.5.5 0 00.44-.75l-6.5-13a.5.5 0 00-.44-.25zM6.34 14l5.63-11.5L17.61 14H6.34z"/>
   <path transform="rotate(180 24.5 8)" d="M24 15.5a.5.5 0 001 0V1.67l2.15 2.18a.5.5 0 10.7-.71l-3-3a.5.5 0 00-.4-.14.5.5 0 00-.31.14l-3 3a.5.5 0 10.7.71L24 1.67V15.5z"/>
  </symbol>
 </svg>
 <svg>
  <symbol id="number_DESC" viewBox="0 0 32 16">
   <path d="M6.5 0a.5.5 0 00-.5.5v15a.5.5 0 00.5.5h2a.5.5 0 000-1H7V1h1.5a.5.5 0 000-1h-2zM13 10.5a.5.5 0 01.5-.5h3a.5.5 0 01.5.5V12h-3.5a.5.5 0 01-.5-.5v-1zM16.5 9a1.5 1.5 0 011.5 1.5v4c0 1-.5 1.5-1.5 1.5h-4a.5.5 0 010-1h4a.5.5 0 00.5-.5V13h-3.5a1.5 1.5 0 01-1.5-1.5v-1A1.5 1.5 0 0113.5 9h3zM16 .5a.5.5 0 00-.5-.5h-2a.5.5 0 000 1H15v5h-1.5a.5.5 0 000 1h4a.5.5 0 000-1H16V.5z"/>
   <path transform="rotate(180 24.5 8)" d="M24 15.5a.5.5 0 001 0V1.67l2.15 2.18a.5.5 0 10.7-.71l-3-3a.5.5 0 00-.4-.14.5.5 0 00-.31.14l-3 3a.5.5 0 10.7.71L24 1.67V15.5z"/>
  </symbol>
 </svg>
 <svg>
  <symbol id="partner_DESC" viewBox="0 0 32 16">
   <path d="M16.6 10.8l-2.2-.5c-.6-.1-.4-1-.4-1 .1-.3.7-1.4.8-1.4.4-.4.9-1 1-1.7.1-.6 0-1-.1-1.3 0-.5 0-1.5-.2-2.2 0-.8-.2-1.3-.5-1.7-.3-.3-1.2-.5-1.3-.5C13.2.2 12.6 0 12 0c-1.3.1-3 .9-3.5 2.6-.2.4-.2 2.3-.2 2.3-.1.2-.2.6-.1 1.2.1.7.6 1.3 1 1.7.1.1.7 1.2.8 1.5 0 0 .2 1-.4 1.1l-2.2.5c-1.4.2-2.4 1.5-2.4 3v1c0 .6.4 1.1 1 1.1h12c.6 0 1-.5 1-1.1v-1c0-1.5-1-2.8-2.4-3.1zM18 15H6v-1.1c0-1 .7-1.9 1.6-2.1l2.2-.5c.7-.1 1.2-.8 1.2-1.5v-.7c-.1-.4-.4-.9-.5-1.1-.2-.4-.4-.8-.6-.9-.3-.4-.6-.8-.7-1.2-.1-.4.2-.7.2-1 0 0 0-1.6.1-1.9.3-1.2 1.5-2 2.5-2 .5 0 .8.1 1.2.4 1.3.1 1.2.7 1.3 1.5.1.5.2 1.5.1 1.9 0 .3.3.6.2 1-.1.4-.4.8-.7 1.2-.2.2-.4.6-.6 1-.1.2-.5.8-.5 1.1v.7c0 .8.5 1.4 1.2 1.5l2.2.5c.9.2 1.6 1.1 1.6 2.1V15z"/>
   <path transform="rotate(180 24.5 8)" d="M24 15.5a.5.5 0 001 0V1.67l2.15 2.18a.5.5 0 10.7-.71l-3-3a.5.5 0 00-.4-.14.5.5 0 00-.31.14l-3 3a.5.5 0 10.7.71L24 1.67V15.5z"/>
  </symbol>
 </svg>
 <svg>
  <symbol id="recall_DESC" viewBox="0 0 32 16">
   <path d="M5 6.24c0-2.34 1.58-4.24 4-4.24c1.12 0 2.18.73 3 1.43c.82-.7 1.88-1.43 3-1.43c2.42 0 4 1.91 4 4.24c0 1.4-.8 2.81-1.96 4.19a43.39 43.39 0 01-4.46 4.35a.88.88 0 01-1.16 0a43.5 43.5 0 01-4.46-4.35c-1.16-1.38-1.96-2.78-1.96-4.19zm4-3.24c-1.78 0-3 1.37-3 3.24c0 1.04.6 2.21 1.73 3.55a41.75 41.75 0 004.27 4.17a41.93 41.93 0 004.27-4.17c1.13-1.34 1.73-2.51 1.73-3.55c0-1.87-1.22-3.24-3-3.24c-.99 0-1.98.82-2.65 1.46l-.35.34-.34-.33c-.68-.65-1.67-1.47-2.66-1.47z"/>
   <path transform="rotate(180 24.5 8)" d="M24 15.5a.5.5 0 001 0V1.67l2.15 2.18a.5.5 0 10.7-.71l-3-3a.5.5 0 00-.4-.14.5.5 0 00-.31.14l-3 3a.5.5 0 10.7.71L24 1.67V15.5z"/>
  </symbol>
 </svg>
 <svg>
  <symbol id="problem_DESC" viewBox="0 0 32 16">
   <path d="M12 15a7 7 0 100-14 7 7 0 000 14zm0 1a8 8 0 100-16 8 8 0 000 16zM11 4a1 1 0 112 0v5a1 1 0 11-2 0V4zm1 9a1 1 0 100-2 1 1 0 000 2z"/>
   <path transform="rotate(180 24.5 8)" d="M24 15.5a.5.5 0 001 0V1.67l2.15 2.18a.5.5 0 10.7-.71l-3-3a.5.5 0 00-.4-.14.5.5 0 00-.31.14l-3 3a.5.5 0 10.7.71L24 1.67V15.5z"/>
  </symbol>
 </svg>
 <svg>
  <symbol id="rating_DESC" viewBox="0 0 32 16">
   <path d="M19.93 6.6c-.15-.46-.64-.83-1.32-.94l-3.63-.51-1.66-3.27c-.22-.53-.74-.88-1.34-.88s-1.14.46-1.36 1l-1.6 3.15-3.71.53c-.6.04-1.06.4-1.24.94a1.47 1.47 0 00.46 1.58l2.64 2.5-.62 3.52c-.11.42-.03.91.25 1.26c.45.56 1.33.69 1.95.32l3.23-1.68 3.24 1.66c.62.38 1.5.3 1.97-.29c.3-.36.36-.82.22-1.46l-.59-3.3 2.67-2.56c.45-.38.62-1.01.44-1.56zm-1.07.8-2.91 2.76c-.17.14-.2.23-.15.43l.64 3.7c.03.1.1.41-.04.6c-.13.15-.39.16-.53.07l-3.51-1.78a.93.93 0 00-.38-.11c-.1 0-.3.09-.39.14l-3.4 1.73c-.24.1-.46.09-.55-.04c-.12-.08-.14-.34-.12-.46l.65-3.7c.06-.2.02-.46-.14-.6l-2.83-2.68a.65.65 0 01-.2-.46c0-.13.23-.29.42-.33l3.92-.55c.22-.01.4-.15.48-.34l1.73-3.4c.07-.18.27-.37.44-.37c.13 0 .35.13.42.3l1.7 3.32c.15.36.21.42.44.47l4 .57c.2.04.32.11.4.22c.09.1.07.31-.09.52z"/>
   <path transform="rotate(180 24.5 8)" d="M24 15.5a.5.5 0 001 0V1.67l2.15 2.18a.5.5 0 10.7-.71l-3-3a.5.5 0 00-.4-.14.5.5 0 00-.31.14l-3 3a.5.5 0 10.7.71L24 1.67V15.5z"/>
  </symbol>
 </svg>
 <svg>
  <symbol id="timing_DESC" viewBox="0 0 32 16">
   <path d="M6.5 1H7v2.52c0 1.08.46 2.12 1.27 2.85.55.49.94.7 1.2.85.11.06.2.11.25.16A.82.82 0 0110 8a.82.82 0 01-.28.62c-.05.05-.14.1-.26.17-.25.14-.64.35-1.2.85A3.84 3.84 0 007 12.48V15h-.5a.5.5 0 000 1h11a.5.5 0 000-1H17v-2.52a3.84 3.84 0 00-1.27-2.85 5.85 5.85 0 00-1.2-.85 1.52 1.52 0 01-.25-.16A.82.82 0 0114 8c0-.24.1-.46.28-.62a6.15 6.15 0 001.46-1.02A3.84 3.84 0 0017 3.51V1h.5a.5.5 0 000-1h-11a.5.5 0 000 1zM16 1H8v2.52c0 .8.34 1.57.94 2.1l1.45 1.02a1.83 1.83 0 010 2.72 3.4 3.4 0 01-.57.4c-.26.15-.55.32-.88.62a2.84 2.84 0 00-.9 1.62h7.92a2.84 2.84 0 00-.9-1.62 5.08 5.08 0 00-.88-.63c-.21-.12-.4-.23-.57-.39A1.84 1.84 0 0113 8c0-.52.22-1.02.6-1.36.18-.16.37-.27.58-.4.26-.15.55-.32.88-.62a2.84 2.84 0 00.94-2.1V1zM8 15v-1h1v1H8zm2 0h1v-1h1v1h1v-1h1v1h1v-1h1v-1h-1v1h-1v-1h-1v1h-1v-1h-1v1h-1v-1H9v1h1v1z"/>
   <path transform="rotate(180 24.5 8)" d="M24 15.5a.5.5 0 001 0V1.67l2.15 2.18a.5.5 0 10.7-.71l-3-3a.5.5 0 00-.4-.14.5.5 0 00-.31.14l-3 3a.5.5 0 10.7.71L24 1.67V15.5z"/>
  </symbol>
 </svg>
 <svg>
  <symbol id="sum_DESC" viewBox="0 0 32 16">
   <path d="M16.5 15h-9a.5.5 0 01-.4-.8L12 8 7.1 1.8a.5.5 0 01.4-.8h9c.28 0 .5.22.5.5v2a.5.5 0 01-1 0V2H8.49l4.53 5.7a.5.5 0 010 .6L8.5 14H16v-1.5a.5.5 0 011 0v2a.5.5 0 01-.5.5z"/>
   <path transform="rotate(180 24.5 8)" d="M24 15.5a.5.5 0 001 0V1.67l2.15 2.18a.5.5 0 10.7-.71l-3-3a.5.5 0 00-.4-.14.5.5 0 00-.31.14l-3 3a.5.5 0 10.7.71L24 1.67V15.5z"/>
  </symbol>
 </svg>
 <svg>
  <symbol id="price_DESC" viewBox="0 0 32 16">
   <path d="M19 8A7 7 0 115 8a7 7 0 0114 0zm1 0A8 8 0 114 8a8 8 0 0116 0zm-9-3v3h1.5a1.5 1.5 0 000-3H11zm0 4h1.5a2.5 2.5 0 000-5h-2a.5.5 0 00-.5.5V8h-.5a.5.5 0 000 1h.5v1h-.5a.5.5 0 000 1h.5v1.5a.5.5 0 001 0V11h1.5a.5.5 0 000-1H11V9z"/>
   <path transform="rotate(180 24.5 8)" d="M24 15.5a.5.5 0 001 0V1.67l2.15 2.18a.5.5 0 10.7-.71l-3-3a.5.5 0 00-.4-.14.5.5 0 00-.31.14l-3 3a.5.5 0 10.7.71L24 1.67V15.5z"/>
  </symbol>
 </svg>
 <svg>
  <symbol id="custom_DESC" viewBox="0 0 32 16">
   <path d="M4.5 2a.5.5 0 00-.5.5v11a.5.5 0 001 0v-9.46l7.1 9.75a.5.5 0 00.9-.29v-11a.5.5 0 00-1 0v9.46l-7.1-9.75a.5.5 0 00-.4-.21zm14.5 3.5v-1a1.5 1.5 0 00-3 0v1a1.5 1.5 0 003 0zm-1.5-3.5a2.5 2.5 0 00-2.5 2.5v1a2.5 2.5 0 005 0v-1a2.5 2.5 0 00-2.5-2.5zm-2.5 8.5a.5.5 0 01.5-.5h4a.5.5 0 010 1h-4a.5.5 0 01-.5-.5z"/>
   <path transform="rotate(180 24.5 8)" d="M24 15.5a.5.5 0 001 0V1.67l2.15 2.18a.5.5 0 10.7-.71l-3-3a.5.5 0 00-.4-.14.5.5 0 00-.31.14l-3 3a.5.5 0 10.7.71L24 1.67V15.5z"/>
  </symbol>
 </svg>
</svg>
